<?xml version="1.0" encoding="UTF-8" standalone="no"?>

<!-- copy-on-select-2.svg - copy-on-select-2 icon.
  ==
  == Copyright (C) 2024 Jens Schmidt
  == Copyright (C) 2016 Bennett Roesch
  ==
  == This Source Code Form is subject to the terms of the Mozilla Public
  == License, v. 2.0. If a copy of the MPL was not distributed with this
  == file, You can obtain one at https://mozilla.org/MPL/2.0/.
  ==
  == This Source Code Form is “Incompatible With Secondary Licenses”, as
  == defined by the Mozilla Public License, v. 2.0.
  ==
  == SPDX-FileCopyrightText: 2024 Jens Schmidt
  == SPDX-FileCopyrightText: 2016 Bennett Roesch
  ==
  == SPDX-License-Identifier: MPL-2.0-no-copyleft-exception -->

<svg
  xmlns="http://www.w3.org/2000/svg"
  xmlns:rdf="http://www.w3.org/1999/02/22-rdf-syntax-ns#"
  xmlns:cc="http://creativecommons.org/ns#"
  width="128"
  height="128"
  viewBox="0 0 33.866666 33.866666"
  version="1.1">
  <metadata>
    <rdf:RDF>
      <cc:Work
        rdf:about="">
        <cc:license
          rdf:resource="https://spdx.org/licenses/MPL-2.0-no-copyleft-exception.html" />
      </cc:Work>
    </rdf:RDF>
  </metadata>
  <rect
    style="fill:#b5d5ff"
    width="25.558645"
    height="16.405924"
    x="0"
    y="2.992020" />
  <path
    d="m 7.9555845,11.47425 c -0.3800856,0.65532 -0.65532,1.022299 -0.9698736,1.31064 -0.5504687,0.498043 -1.2975335,0.812597 -1.9528535,0.812597 -0.5373624,0 -1.0747247,-0.209702 -1.4941295,-0.576682 -0.6815328,-0.602894 -1.0222992,-1.559661 -1.0222992,-2.870301 0,-2.1756624 0.8912352,-3.5387279 2.3067263,-3.5387279 0.65532,0 1.2582144,0.3014472 1.8611088,0.9305544 0.3145535,0.3407663 0.4980431,0.6160007 1.0878311,1.6382999 L 8.7812877,8.8005448 7.6672437,5.7074345 H 6.7760086 L 6.6711574,6.0088817 C 6.0420502,5.7074345 5.2687726,5.5370513 4.495495,5.5370513 c -1.0878311,0 -2.0314919,0.2883408 -2.7785567,0.851916 C 0.64221357,7.2146705 0,8.6039488 0,10.16361 c 0,2.699919 1.9659599,4.639666 4.7051974,4.639666 1.9921728,0 3.6828983,-1.087831 4.3251119,-2.778557 z" />
  <path
    d="m 13.289893,7.9355224 c -2.123237,0 -3.5649405,1.3368528 -3.5649405,3.3159196 0,2.149449 1.4023845,3.499408 3.6304725,3.499408 2.201875,0 3.630473,-1.323746 3.630473,-3.368344 0,-2.1101308 -1.441704,-3.4469836 -3.696005,-3.4469836 z m 0.07864,1.3368528 c 0.825703,0 1.232001,0.7077456 1.232001,2.1625558 0,1.336853 -0.419405,2.044598 -1.232001,2.044598 -0.83881,0 -1.258215,-0.694639 -1.258215,-2.070811 0,-1.4154908 0.419405,-2.1363428 1.258215,-2.1363428 z" />
  <path
    d="M 20.590168,8.05348 H 19.777572 L 17.732973,8.4335656 V 9.495184 l 0.235916,0.026213 c 0.589788,0.078638 0.733958,0.3014472 0.720852,1.0747252 v 4.678984 c -0.01311,0.773278 -0.05243,0.865023 -0.576682,0.996087 l -0.380086,0.09174 v 1.061619 h 4.036771 v -1.061619 l -0.380085,-0.09174 c -0.524256,-0.131064 -0.563575,-0.222809 -0.576682,-0.996087 v -0.891235 c 0.865023,0.32766 1.048512,0.366979 1.572768,0.366979 1.769364,0 3.066898,-1.481023 3.066898,-3.512515 0,-1.8611086 -1.349959,-3.3028126 -3.106217,-3.3028126 -0.576682,0 -0.917448,0.1048512 -1.756258,0.4980432 z m 0.222809,1.6907256 c 0.288341,-0.32766 0.733959,-0.5373624 1.140257,-0.5373624 0.786384,0 1.271321,0.7601712 1.271321,1.9921728 0,1.402385 -0.51115,2.214981 -1.402385,2.214981 -0.340766,0 -0.747065,-0.157276 -1.009193,-0.406298 z" />
  <path
    d="M 29.974337,12.181996 29.004463,9.7179928 c -0.02621,-0.091745 -0.05242,-0.196596 -0.05242,-0.2752344 0,-0.2228088 0.157277,-0.3014472 0.720852,-0.3145536 h 0.14417 V 8.05348 h -4.07609 v 1.0747248 l 0.209702,0.026213 c 0.498044,0.091745 0.616001,0.2097024 0.930555,0.9436604 l 1.979066,4.469283 c -0.275234,0.602894 -0.733958,1.218895 -0.891235,1.218895 -0.05243,0 -0.117958,-0.03932 -0.18349,-0.104851 -0.301447,-0.275235 -0.537362,-0.380086 -0.865022,-0.380086 -0.589788,0 -1.035406,0.458724 -1.035406,1.074725 0,0.681533 0.576682,1.153363 1.402385,1.153363 0.733959,0 1.454811,-0.340766 1.913534,-0.904342 0.275235,-0.340766 0.36698,-0.498043 0.773278,-1.376172 l 2.254301,-4.87558 c 0.406298,-0.8388098 0.629107,-1.0485122 1.31064,-1.2188954 l 0.157277,-0.039319 V 8.05348 h -3.499409 v 1.0747248 h 0.157277 c 0.458724,0.026213 0.602894,0.1048512 0.602894,0.3669792 0,0.078638 -0.01311,0.1703832 -0.05243,0.2490216 z" />
  <path
    d="m 3.1324293,26.939742 c 0.4980432,-0.32766 1.0878312,-0.537362 1.5072359,-0.537362 0.4062984,0 0.5766816,0.235915 0.5766816,0.773278 v 2.43779 c 0,0.733958 -0.091745,0.904342 -0.5766816,1.022299 L 4.40375,30.701279 v 1.061618 H 8.1521803 V 30.701279 L 7.9162651,30.635747 C 7.4313283,30.51779 7.3395835,30.347406 7.3395835,29.613448 v -2.673706 c 0.4194048,-0.262128 1.0091928,-0.458724 1.3630656,-0.458724 0.4456176,0 0.720852,0.288341 0.720852,0.747065 v 2.385365 c 0,0.733958 -0.091745,0.904342 -0.5766816,1.022299 l -0.2359152,0.06553 v 1.061618 h 3.9450267 v -1.061618 l -0.432512,-0.09174 c -0.524256,-0.14417 -0.563575,-0.222808 -0.576681,-0.996086 v -2.542642 c 0,-0.65532 -0.09174,-0.969873 -0.393192,-1.323746 -0.406299,-0.458724 -0.956767,-0.681533 -1.7169385,-0.681533 -0.851916,0 -1.6776192,0.235916 -2.4246839,0.681533 -0.4849368,-0.458724 -1.0747248,-0.681533 -1.7955768,-0.681533 -0.8650223,0 -1.6514063,0.209703 -2.3067263,0.602895 V 25.183485 H 2.0970237 L -1.9598007e-7,25.563571 v 1.061618 L 0.28834059,26.651402 c 0.58978798,0.07864 0.73395841,0.301447 0.72085201,1.074724 v 1.887322 c -0.0131064,0.773278 -0.0524256,0.851916 -0.57668161,0.996086 L -1.9598007e-7,30.701279 v 1.061618 H 3.9450261 V 30.701279 L 3.7091109,30.635747 C 3.2241741,30.51779 3.1324293,30.347406 3.1324293,29.613448 Z" />
  <path
    d="m 19.843089,28.433872 c 0,-0.930554 -0.104851,-1.481023 -0.340767,-1.913534 -0.511149,-0.917448 -1.559661,-1.454811 -2.830982,-1.454811 -2.018386,0 -3.446983,1.402385 -3.446983,3.381451 0,2.00528 1.494129,3.433877 3.564941,3.433877 0.996086,0 1.900428,-0.353873 2.477109,-0.98298 0.249022,-0.262128 0.406299,-0.47183 0.733958,-1.009193 L 18.899428,29.35132 c -0.51115,0.760171 -1.048512,1.114044 -1.716938,1.114044 -1.0223,0 -1.598981,-0.747065 -1.585875,-2.031492 z m -4.167835,-1.009193 c 0.03932,-0.720852 0.393192,-1.153363 0.98298,-1.153363 0.589788,0 0.838809,0.32766 0.865022,1.153363 z" />
  <path
    d="m 33.696555,28.918809 -1.061618,-0.288341 c -0.589788,1.218895 -0.760171,1.31064 -2.359152,1.297534 h -1.6383 c 1.625194,-0.878129 2.424684,-1.389279 3.197962,-2.083918 0.996086,-0.891235 1.402384,-1.612087 1.402384,-2.490216 0,-1.625193 -1.441704,-2.686812 -3.643579,-2.686812 -2.097024,0 -3.591153,1.087831 -3.591153,2.595067 0,0.733959 0.47183,1.245108 1.153363,1.245108 0.589788,0 1.087831,-0.458724 1.087831,-1.009192 0,-0.222809 -0.05243,-0.380086 -0.209702,-0.616001 -0.09174,-0.144171 -0.131064,-0.235915 -0.131064,-0.340767 0,-0.380085 0.642213,-0.733958 1.31064,-0.733958 0.865022,0 1.415491,0.51115 1.415491,1.31064 0,0.930554 -0.563575,1.979066 -1.598981,2.94894 -0.747065,0.707745 -1.035406,0.917448 -3.027578,2.228088 l 0.209702,1.467916 h 6.684264 z" />
  <path
    style="stroke:#000000;stroke-width:1.2384;fill:none"
    d="M 25.558645,2.992020 25.558645,19.397944" />
  <path
    style="stroke:#000000;stroke-width:1.2384;fill:none"
    d="M 21.843460,0.515215 25.558645,2.992020 29.273830,0.515215" />
  <path
    style="stroke:#000000;stroke-width:1.2384;fill:none"
    d="M 21.843460,21.874749 25.558645,19.397944 29.273830,21.874749" />
</svg>
