<?xml version="1.0" encoding="UTF-8" standalone="no"?>

<!-- copy-on-select-2.svg - copy-on-select-2 icon.
  ==
  == Copyright (C) 2024 Jens Schmidt
  == Copyright (C) 2016 Bennett Roesch
  ==
  == This Source Code Form is subject to the terms of the Mozilla Public
  == License, v. 2.0. If a copy of the MPL was not distributed with this
  == file, You can obtain one at https://mozilla.org/MPL/2.0/.
  ==
  == This Source Code Form is “Incompatible With Secondary Licenses”, as
  == defined by the Mozilla Public License, v. 2.0.
  ==
  == SPDX-FileCopyrightText: 2024 Jens Schmidt
  == SPDX-FileCopyrightText: 2016 Bennett Roesch
  ==
  == SPDX-License-Identifier: MPL-2.0-no-copyleft-exception -->

<svg
  xmlns="http://www.w3.org/2000/svg"
  xmlns:rdf="http://www.w3.org/1999/02/22-rdf-syntax-ns#"
  xmlns:cc="http://creativecommons.org/ns#"
  width="128"
  height="128"
  viewBox="0 0 128 128"
  version="1.1">
  <metadata>
    <rdf:RDF>
      <cc:Work
        rdf:about="">
        <cc:license
          rdf:resource="https://spdx.org/licenses/MPL-2.0-no-copyleft-exception.html" />
      </cc:Work>
    </rdf:RDF>
  </metadata>
  <style>
    :root { color: black; }
    @media ( prefers-color-scheme: dark ) {
      :root { color: white; }
    }
    path { stroke: none; fill: currentcolor; }
    text { stroke: none; fill: currentcolor; }
  </style>
  <rect
    style="fill:#b5d5ff"
    width="96.59961"
    height="62.00664"
    x="0"
    y="11.30842" />
  <path
    d="m 30.06835,43.36724 c -1.436544,2.4768 -2.4768,3.863807 -3.665664,4.9536 -2.080512,1.882367 -4.904064,3.071233 -7.380864,3.071233 -2.030976,0 -4.061952,-0.7925745 -5.647104,-2.179586 -2.575872,-2.278655 -3.863808,-5.894782 -3.863808,-10.84838 0,-8.222976 3.368448,-13.37472 8.718336,-13.37472 2.4768,0 4.755456,1.139328 7.034112,3.517056 1.188864,1.287936 1.882368,2.328192 4.111488,6.192 L 33.18912,33.2619 28.97856,21.57141 H 25.61011 L 25.21382,22.71073 C 22.8361,21.57141 19.91347,20.92744 16.99085,20.92744 c -4.111488,0 -7.67808,1.089792 -10.50163,3.21984 C 2.427264,27.26805 0,32.51886 0,38.41364 c 0,10.20442 7.4304,17.53575 17.78342,17.53575 7.529472,0 13.91962,-4.111487 16.34688,-10.50163 z" />
  <path
    d="m 50.22952,29.99253 c -8.024833,0 -13.47379,5.052672 -13.47379,12.53261 0,8.123902 5.300351,13.22611 13.72147,13.22611 8.322047,0 13.72147,-5.003135 13.72147,-12.73075 0,-7.975298 -5.44896,-13.02797 -13.96915,-13.02797 z m 0.2972221,5.052672 c 3.120767,0 4.656382,2.674944 4.656382,8.173439 0,5.052673 -1.585153,7.727615 -4.656382,7.727615 -3.170306,0 -4.755458,-2.625407 -4.755458,-7.826687 0,-5.349887 1.585153,-8.074367 4.755458,-8.074367 z" />
  <path
    d="M 77.82111,30.43835 H 74.74988 L 67.02226,31.87489 V 35.88731 l 0.891651,0.09907276 c 2.22912,0.2972145 2.774015,1.139328 2.72448,4.061954 v 17.68435 c -0.04954961,2.922626 -0.1981606,3.269378 -2.179586,3.764738 l -1.436546,0.3467339 v 4.012418 h 15.25709 v -4.012418 l -1.436542,-0.3467339 c -1.98144,-0.49536 -2.130047,-0.8421128 -2.179586,-3.764738 v -3.368447 c 3.269378,1.2384 3.96288,1.387007 5.94432,1.387007 6.68736,0 11.59143,-5.597567 11.59143,-13.27565 0,-7.034111 -5.102207,-12.48307 -11.74003,-12.48307 -2.179586,0 -3.46752,0.396288 -6.637826,1.882368 z m 0.8421128,6.390144 c 1.089793,-1.2384 2.774018,-2.030976 4.309633,-2.030976 2.97216,0 4.804993,2.873088 4.804993,7.529472 0,5.300353 -1.931906,8.371582 -5.300353,8.371582 -1.287935,0 -2.823553,-0.594429 -3.814273,-1.535615 z" />
  <path
    d="M 113.2888,46.04219 109.6232,36.72942 c -0.09906142,-0.3467528 -0.1981228,-0.74304 -0.1981228,-1.040256 0,-0.842112 0.5944328,-1.139328 2.72448,-1.188864 h 0.5448945 V 30.43835 h -15.40569 v 4.061952 l 0.7925745,0.09907276 c 1.882371,0.3467528 2.328193,0.792576 3.517058,3.566591 l 7.479935,16.89178 c -1.040255,2.278655 -2.774015,4.606847 -3.368447,4.606847 -0.1981606,0 -0.4458255,-0.148611 -0.6935055,-0.3962873 -1.139327,-1.040258 -2.030975,-1.436546 -3.269375,-1.436546 -2.22912,0 -3.913346,1.73376 -3.913346,4.061953 0,2.575873 2.179586,4.359167 5.300353,4.359167 2.774018,0 5.498498,-1.287935 7.232255,-3.417986 1.040258,-1.287935 1.387011,-1.882367 2.922626,-5.20128 l 8.520193,-18.42739 c 1.535615,-3.170305 2.377727,-3.962881 4.9536,-4.606849 l 0.5944328,-0.1486072 V 30.43835 h -13.22611 v 4.061952 h 0.5944328 c 1.73376,0.09907276 2.278655,0.396288 2.278655,1.387008 0,0.2972145 -0.04954961,0.643968 -0.1981606,0.941184 z" />
  <path
    d="m 11.8391,101.8195 c 1.882368,-1.2384 4.111488,-2.030975 5.69664,-2.030975 1.535616,0 2.179584,0.8916473 2.179584,2.922626 v 9.213695 c 0,2.774015 -0.3467528,3.417986 -2.179584,3.863807 L 16.64409,116.0363 v 4.012415 H 30.81139 V 116.0363 L 29.91974,115.7887 C 28.08691,115.3428 27.74016,114.6989 27.74016,111.9248 v -10.10535 c 1.585152,-0.99072 3.814272,-1.73376 5.151744,-1.73376 1.684224,0 2.72448,1.089793 2.72448,2.823553 v 9.015553 c 0,2.774015 -0.3467528,3.417986 -2.179584,3.863807 l -0.891648,0.2476724 v 4.012415 h 14.91034 v -4.012415 l -1.634691,-0.3467339 c -1.98144,-0.5448945 -2.130047,-0.842109 -2.179582,-3.764735 v -9.609986 c 0,-2.4768 -0.3467339,-3.665662 -1.48608,-5.003135 -1.535618,-1.73376 -3.616127,-2.575873 -6.489217,-2.575873 -3.21984,0 -6.340608,0.891651 -9.16416,2.575873 -1.832832,-1.73376 -4.061952,-2.575873 -6.786432,-2.575873 -3.269376,0 -6.241536,0.7925783 -8.718336,2.278658 V 95.18168 H 7.925759 L 0,96.61822 v 4.012415 L 1.089791,100.7297 c 2.22912,0.2972221 2.774016,1.139327 2.72448,4.061949 v 7.133186 c -0.049536,2.922626 -0.198144,3.21984 -2.179584,3.764735 L 0,116.0363 v 4.012415 H 14.91034 V 116.0363 L 14.01869,115.7887 C 12.18586,115.3428 11.8391,114.6989 11.8391,111.9248 Z" />
  <path
    d="m 74.9975,107.4666 c 0,-3.517055 -0.3962873,-5.597567 -1.287938,-7.232255 -1.931902,-3.46752 -5.894782,-5.498498 -10.69977,-5.498498 -7.628546,0 -13.02797,5.300353 -13.02797,12.78029 0,7.579011 5.647102,12.97843 13.47379,12.97843 3.764735,0 7.18272,-1.337473 9.362302,-3.7152 0.9411855,-0.99072 1.535618,-1.783295 2.774015,-3.814273 L 71.43091,110.9341 c -1.931906,2.873087 -3.96288,4.21056 -6.489215,4.21056 -3.863811,0 -6.043393,-2.823553 -5.993858,-7.67808 z m -15.75245,-3.814273 c 0.148611,-2.72448 1.48608,-4.359167 3.7152,-4.359167 2.22912,0 3.170302,1.2384 3.269375,4.359167 z" />
  <path
    d="m 127.3571,109.2994 -4.012415,-1.089793 c -2.22912,4.606847 -2.873087,4.9536 -8.91648,4.904066 h -6.192 c 6.142466,-3.318913 9.16416,-5.250818 12.08679,-7.876226 3.764735,-3.368447 5.300349,-6.092927 5.300349,-9.41184 0,-6.142462 -5.44896,-10.15488 -13.77101,-10.15488 -7.92576,0 -13.57286,4.111487 -13.57286,9.808127 0,2.774018 1.783295,4.70592 4.359167,4.70592 2.22912,0 4.111487,-1.73376 4.111487,-3.814269 0,-0.8421128 -0.1981606,-1.436546 -0.7925745,-2.328193 -0.3467339,-0.5448983 -0.49536,-0.8916473 -0.49536,-1.287938 0,-1.436542 2.427262,-2.774015 4.9536,-2.774015 3.269375,0 5.349887,1.931906 5.349887,4.9536 0,3.517055 -2.130047,7.479935 -6.043393,11.1456 -2.823553,2.674942 -3.913346,3.46752 -11.44281,8.42112 l 0.7925745,5.548029 h 25.26336 z" />
  <path
    style="stroke:currentcolor;stroke-width:4.680567;fill:none"
    d="M 96.59961,11.30842 96.59961,73.31506" />
  <path
    style="stroke:currentcolor;stroke-width:4.680567;fill:none"
    d="M 82.55796,1.947269 96.59961,11.30842 110.6412,1.947269" />
  <path
    style="stroke:currentcolor;stroke-width:4.680567;fill:none"
    d="M 82.55796,82.67622 96.59961,73.31506 110.6412,82.67622" />
</svg>
