<?xml version="1.0" encoding="UTF-8" standalone="no"?>

<!-- question-mark.svg - documentation link icon.
  ==
  == Copyright (C) 2024 Jens Schmidt
  ==
  == This Source Code Form is subject to the terms of the Mozilla Public
  == License, v. 2.0. If a copy of the MPL was not distributed with this
  == file, You can obtain one at https://mozilla.org/MPL/2.0/.
  ==
  == SPDX-FileCopyrightText: 2024 Jens Schmidt
  ==
  == SPDX-License-Identifier: MPL-2.0 -->

<svg
  xmlns="http://www.w3.org/2000/svg"
  xmlns:rdf="http://www.w3.org/1999/02/22-rdf-syntax-ns#"
  xmlns:cc="http://creativecommons.org/ns#"
  width="128"
  height="128"
  viewBox="0 0 128 128"
  version="1.1">
  <metadata>
    <rdf:RDF>
      <cc:Work
        rdf:about="">
        <cc:license
          rdf:resource="https://spdx.org/licenses/MPL-2.0.html" />
      </cc:Work>
    </rdf:RDF>
  </metadata>
  <circle
    style="stroke:#808080;stroke-width:18.236;stroke-opacity:1;fill:none"
    cx="64"
    cy="64"
    r="54.882" />
  <path
    style="fill:#808080;fill-opacity:1"
    d="m 70.64583,75.89583 h -15.83333 v -1.583331 q 0,-4.041666 0.9166663,-6.541667 0.9166663,-2.541666 2.708334,-4.625 1.833333,-2.083334 8.166666,-7.333334 3.374998,-2.749999 3.374998,-5.041666 0,-2.291668 -1.374997,-3.541666 -1.333332,-1.291667 -4.083335,-1.291667 -2.958332,0 -4.916667,1.958332 -1.916666,1.958335 -2.458332,6.833334 L 40.97916,52.72917 q 0.8333323,-8.916664 6.458333,-14.33333 5.666665,-5.458332 17.33333,-5.458332 9.083332,0 14.66666,3.791668 7.583336,5.124996 7.583336,13.66666 0,3.541666 -1.958335,6.833334 -1.958332,3.291668 -7.999998,8.041667 -4.208334,3.333333 -5.333333,5.374998 -1.083334,2 -1.083334,5.249999 z m -16.375,4.208334 h 16.95834 v 14.95833 h -16.95834 z" />
</svg>
